<svg xmlns="http://www.w3.org/2000/svg" viewBox="0 0 100 100"><ellipse cx="50.0" cy="53.0" rx="21" ry="7" fill="#0b1020" opacity="0.12"></ellipse><polygon points="28.8,50.0 50.0,62.2 50.0,39.9 28.8,27.7" fill="#1c5fc4"></polygon><polygon points="71.2,50.0 50.0,62.2 50.0,39.9 71.2,27.7" fill="#2f7ae6"></polygon><polygon points="50.0,15.4 71.2,27.7 50.0,39.9 28.8,27.7" fill="#7aa9ff"></polygon><polygon points="67.8,48.4 53.4,56.7 53.4,40.8 67.8,32.5" fill="#1c5fc4"></polygon><polygon points="67.8,48.4 53.4,56.7 53.4,40.8 67.8,32.5" fill="none" stroke="#9cc0ff" stroke-width="1" opacity="0.55"></polygon><line x1="60.6" y1="44.6" x2="65.1" y2="47.6" stroke="#cfe0ff" stroke-width="1.7" stroke-linecap="round"></line><line x1="60.6" y1="44.6" x2="57.6" y2="49.1" stroke="#cfe0ff" stroke-width="1.7" stroke-linecap="round"></line><line x1="60.6" y1="44.6" x2="56.1" y2="41.6" stroke="#cfe0ff" stroke-width="1.7" stroke-linecap="round"></line><line x1="60.6" y1="44.6" x2="63.6" y2="40.1" stroke="#cfe0ff" stroke-width="1.7" stroke-linecap="round"></line><circle cx="60.6" cy="44.6" r="4.4" fill="none" stroke="#e0ecff" stroke-width="1.8"></circle><circle cx="60.6" cy="44.6" r="2" fill="#e0ecff"></circle><circle cx="67.8" cy="48.4" r="0.9" fill="#13407f"></circle><circle cx="53.4" cy="56.7" r="0.9" fill="#13407f"></circle><circle cx="67.8" cy="32.5" r="0.9" fill="#13407f"></circle><circle cx="53.4" cy="40.8" r="0.9" fill="#13407f"></circle></svg>