<svg xmlns="http://www.w3.org/2000/svg" viewBox="0 0 100 100"><ellipse cx="50.0" cy="53.0" rx="24" ry="7" fill="#0b1020" opacity="0.12"></ellipse><polygon points="23.7,47.7 53.9,65.2 53.9,61.4 23.7,43.9" fill="#cdd7e6"></polygon><polygon points="76.3,52.3 53.9,65.2 53.9,61.4 76.3,48.5" fill="#e3e9f2"></polygon><polygon points="46.1,31.0 76.3,48.5 53.9,61.4 23.7,43.9" fill="#ffffff"></polygon><polygon points="43.9,36.8 66.3,49.7 66.3,49.4 43.9,36.5" fill="#c6d2e6"></polygon><polygon points="68.4,48.5 66.3,49.7 66.3,49.4 68.4,48.2" fill="#c6d2e6"></polygon><polygon points="46.1,35.3 68.4,48.2 66.3,49.4 43.9,36.5" fill="#c6d2e6"></polygon><polygon points="37.4,40.6 59.7,53.5 59.7,53.2 37.4,40.3" fill="#c6d2e6"></polygon><polygon points="61.8,52.3 59.7,53.5 59.7,53.2 61.8,52.0" fill="#c6d2e6"></polygon><polygon points="39.5,39.1 61.8,52.0 59.7,53.2 37.4,40.3" fill="#c6d2e6"></polygon><polygon points="30.8,44.4 44.6,52.4 44.6,52.1 30.8,44.1" fill="#c6d2e6"></polygon><polygon points="46.7,51.1 44.6,52.4 44.6,52.1 46.7,50.8" fill="#c6d2e6"></polygon><polygon points="32.9,42.9 46.7,50.8 44.6,52.1 30.8,44.1" fill="#c6d2e6"></polygon></svg>