<svg xmlns="http://www.w3.org/2000/svg" viewBox="0 0 100 100"><ellipse cx="50.0" cy="53.0" rx="23" ry="7" fill="#0b1020" opacity="0.12"></ellipse><polygon points="25.8,50.0 50.0,64.0 50.0,53.5 25.8,39.5" fill="#1c5fc4"></polygon><polygon points="74.2,50.0 50.0,64.0 50.0,53.5 74.2,39.5" fill="#2f7ae6"></polygon><polygon points="50.0,25.5 74.2,39.5 50.0,53.5 25.8,39.5" fill="#7aa9ff"></polygon><polygon points="30.6,39.5 50.0,50.7 50.0,40.2 30.6,29.0" fill="#2f72d8"></polygon><polygon points="69.4,39.5 50.0,50.7 50.0,40.2 69.4,29.0" fill="#5a93f0"></polygon><polygon points="50.0,17.8 69.4,29.0 50.0,40.2 30.6,29.0" fill="#a6c6ff"></polygon><polygon points="35.5,29.0 50.0,37.4 50.0,26.9 35.5,18.5" fill="#1c5fc4"></polygon><polygon points="64.5,29.0 50.0,37.4 50.0,26.9 64.5,18.5" fill="#2f7ae6"></polygon><polygon points="50.0,10.1 64.5,18.5 50.0,26.9 35.5,18.5" fill="#7aa9ff"></polygon></svg>