<svg xmlns="http://www.w3.org/2000/svg" viewBox="0 0 100 100"><ellipse cx="50.0" cy="53.0" rx="26" ry="7" fill="#0b1020" opacity="0.12"></ellipse><polygon points="31.2,44.0 39.7,49.0 39.7,35.0 31.2,30.0" fill="#d3611f"></polygon><polygon points="48.2,44.0 39.7,49.0 39.7,35.0 48.2,30.0" fill="#ef7e36"></polygon><polygon points="39.7,25.2 48.2,30.0 39.7,35.0 31.2,30.0" fill="#ffba79"></polygon><polygon points="41.5,50.0 50.0,54.9 50.0,33.2 41.5,28.3" fill="#1c5fc4"></polygon><polygon points="58.5,50.0 50.0,54.9 50.0,33.2 58.5,28.3" fill="#2f7ae6"></polygon><polygon points="50.0,23.4 58.5,28.3 50.0,33.2 41.5,28.3" fill="#7aa9ff"></polygon><polygon points="51.8,56.0 60.3,60.8 60.3,31.4 51.8,26.6" fill="#0e9468"></polygon><polygon points="68.8,56.0 60.3,60.8 60.3,31.4 68.8,26.6" fill="#16b87e"></polygon><polygon points="60.3,21.6 68.8,26.6 60.3,31.4 51.8,26.6" fill="#5fe3aa"></polygon></svg>