<svg xmlns="http://www.w3.org/2000/svg" viewBox="0 0 100 100"><ellipse cx="50.0" cy="53.0" rx="27" ry="7" fill="#0b1020" opacity="0.12"></ellipse><polygon points="25.4,46.0 57.0,64.2 57.0,61.7 25.4,43.5" fill="#0e9a6b"></polygon><polygon points="74.6,54.0 57.0,64.2 57.0,61.7 74.6,51.5" fill="#1abc88"></polygon><polygon points="43.0,33.3 74.6,51.5 57.0,61.7 25.4,43.5" fill="#67d9a0"></polygon><polygon points="25.4,43.5 57.0,61.7 57.0,59.1 25.4,40.9" fill="#16a675"></polygon><polygon points="74.6,51.5 57.0,61.7 57.0,59.1 74.6,49.0" fill="#30cb93"></polygon><polygon points="43.0,30.8 74.6,49.0 57.0,59.1 25.4,40.9" fill="#8ae6ba"></polygon><polygon points="25.4,40.9 57.0,59.1 57.0,56.6 25.4,38.4" fill="#0e9a6b"></polygon><polygon points="74.6,49.0 57.0,59.1 57.0,56.6 74.6,46.5" fill="#1abc88"></polygon><polygon points="43.0,28.3 74.6,46.5 57.0,56.6 25.4,38.4" fill="#67d9a0"></polygon><polygon points="25.4,38.4 57.0,56.6 57.0,54.1 25.4,35.9" fill="#16a675"></polygon><polygon points="74.6,46.5 57.0,56.6 57.0,54.1 74.6,43.9" fill="#30cb93"></polygon><polygon points="43.0,25.7 74.6,43.9 57.0,54.1 25.4,35.9" fill="#8ae6ba"></polygon><g transform="matrix(6.062,3.500,-6.062,3.500,50,39.92)" fill="none" stroke="#0b7d56" stroke-width="0.13" opacity="0.75"><rect x="-2.35" y="-1.2" width="4.7" height="2.4" rx="0.3"></rect></g><g transform="matrix(6.062,3.500,-6.062,3.500,50,39.92)"><text x="-1.35" y="0.62" text-anchor="middle" font-family="Space Grotesk,sans-serif" font-weight="700" font-size="1.9" fill="#0b7d56">€</text><circle cx="1.3" cy="0" r="0.66" fill="none" stroke="#0b7d56" stroke-width="0.13" opacity="0.75"></circle><circle cx="1.3" cy="-0.14" r="0.24" fill="#0b7d56" opacity="0.7"></circle><path d="M0.9 0.48 A0.52 0.52 0 0 1 1.7 0.48 Z" fill="#0b7d56" opacity="0.7"></path></g></svg>