<svg xmlns="http://www.w3.org/2000/svg" viewBox="0 0 100 100"><ellipse cx="50.0" cy="53.0" rx="24" ry="7" fill="#0b1020" opacity="0.12"></ellipse><polygon points="24.4,47.5 54.4,64.8 54.4,59.7 24.4,42.4" fill="#cdd7e6"></polygon><polygon points="75.6,52.5 54.4,64.8 54.4,59.7 75.6,47.5" fill="#e3e9f2"></polygon><polygon points="45.6,30.2 75.6,47.5 54.4,59.7 24.4,42.4" fill="#ffffff"></polygon><g transform="matrix(6.235,3.600,-6.235,3.600,50,44.96)"><rect x="-2.4" y="-1.7" width="4.8" height="3.4" rx="0.25" fill="#eef3fc"></rect><polygon points="-2.4,-1.7 2.4,-1.7 0,0.2" fill="#9cbef0"></polygon><polyline points="-2.4,-1.7 0,0.2 2.4,-1.7" fill="none" stroke="#6f9eea" stroke-width="0.16" stroke-linejoin="round"></polyline><polyline points="-2.4,1.7 -0.05,0.1 2.4,1.7" fill="none" stroke="#bcd2f5" stroke-width="0.16" stroke-linejoin="round"></polyline><rect x="-2.4" y="-1.7" width="4.8" height="3.4" rx="0.25" fill="none" stroke="#cdd9ee" stroke-width="0.16"></rect></g></svg>