<svg xmlns="http://www.w3.org/2000/svg" viewBox="0 0 100 100"><ellipse cx="50.0" cy="53.0" rx="23" ry="7" fill="#0b1020" opacity="0.12"></ellipse><polygon points="25.7,48.2 53.1,64.0 53.1,57.6 25.7,41.7" fill="#cdd7e6"></polygon><polygon points="74.3,51.8 53.1,64.0 53.1,57.6 74.3,45.3" fill="#e3e9f2"></polygon><polygon points="46.9,29.5 74.3,45.3 53.1,57.6 25.7,41.7" fill="#ffffff"></polygon><polygon points="38.2,40.3 42.5,42.8 42.5,35.6 38.2,33.1" fill="#d3611f"></polygon><polygon points="46.9,40.3 42.5,42.8 42.5,35.6 46.9,33.1" fill="#ef7e36"></polygon><polygon points="42.5,30.6 46.9,33.1 42.5,35.6 38.2,33.1" fill="#ffba79"></polygon><polygon points="45.0,44.2 49.4,46.8 49.4,34.5 45.0,32.0" fill="#1c5fc4"></polygon><polygon points="53.7,44.2 49.4,46.8 49.4,34.5 53.7,32.0" fill="#2f7ae6"></polygon><polygon points="49.4,29.5 53.7,32.0 49.4,34.5 45.0,32.0" fill="#7aa9ff"></polygon><polygon points="51.9,48.2 56.2,50.7 56.2,33.4 51.9,30.9" fill="#0e9468"></polygon><polygon points="60.6,48.2 56.2,50.7 56.2,33.4 60.6,30.9" fill="#16b87e"></polygon><polygon points="56.2,28.4 60.6,30.9 56.2,33.4 51.9,30.9" fill="#5fe3aa"></polygon></svg>