<svg xmlns="http://www.w3.org/2000/svg" viewBox="0 0 100 100"><ellipse cx="50" cy="85" rx="20" ry="4.8" fill="#0b1020" opacity="0.13"></ellipse><polygon points="50,53 50.0,28.0 71.7,40.5" fill="#ffc890"></polygon><polygon points="50,53 71.7,40.5 71.7,65.5" fill="#f0902f"></polygon><polygon points="50,53 71.7,65.5 50.0,78.0" fill="#d3611f"></polygon><polygon points="50,53 50.0,78.0 28.3,65.5" fill="#d3611f"></polygon><polygon points="50,53 28.3,65.5 28.3,40.5" fill="#f0902f"></polygon><polygon points="50,53 28.3,40.5 50.0,28.0" fill="#ffc890"></polygon><polygon points="50,53 50.0,28.0 71.7,40.5" fill="#ffe0b8"></polygon><path d="M50 28 C56 18 70 19 75 23 C71 33 58 35 50 28 Z" fill="#16b884"></path><path d="M52 27 C60 24 68 24 73 24" stroke="#0c8f64" stroke-width="1.2" fill="none" opacity="0.6"></path></svg>
